<?xml version="1.0" standalone="no"?>
<!DOCTYPE svg PUBLIC "-//W3C//DTD SVG 20010904//EN"
 "http://www.w3.org/TR/2001/REC-SVG-20010904/DTD/svg10.dtd">
<svg version="1.0" xmlns="http://www.w3.org/2000/svg"
 width="1280.000000pt" height="950.000000pt" viewBox="0 0 1280.000000 950.000000"
 preserveAspectRatio="xMidYMid meet">
<g transform="translate(0.000000,950.000000) scale(0.100000,-0.100000)"
fill="#000000" stroke="none">
<path d="M7490 9416 l0 -85 -42 -5 c-24 -3 -79 -8 -122 -11 -44 -3 -125 -15
-180 -26 -513 -103 -930 -422 -1161 -889 -263 -529 -273 -1126 -27 -1617 262
-521 743 -869 1347 -973 l100 -17 -1 -29 c0 -16 -6 -76 -14 -134 -17 -137 -8
-352 20 -490 62 -307 189 -549 395 -755 196 -197 408 -308 685 -361 86 -16
192 -18 1080 -24 950 -7 988 -7 1070 -27 169 -42 256 -78 355 -148 108 -76
188 -179 238 -307 58 -143 59 -163 64 -686 l5 -483 291 3 292 3 3 385 c3 419
-7 619 -39 768 -113 522 -470 881 -1016 1022 -207 53 -207 53 -1258 60 l-980
6 -75 23 c-224 68 -391 228 -485 466 -50 125 -68 241 -62 400 6 171 27 259 97
403 31 65 52 124 56 156 14 116 -53 236 -162 291 -56 28 -65 29 -174 28 -458
-8 -810 110 -1064 356 -139 135 -230 274 -291 443 -47 132 -65 238 -65 383 0
461 240 887 605 1072 111 57 285 103 447 119 l68 6 2 -348 3 -349 293 -3 292
-2 0 65 c0 75 -13 70 141 54 571 -58 1010 -369 1199 -848 66 -169 99 -403 81
-586 -29 -292 -120 -535 -312 -827 -33 -51 -62 -108 -69 -138 -13 -56 -7 -133
15 -186 19 -45 80 -110 134 -142 l46 -27 610 -6 c497 -5 628 -9 709 -23 390
-64 697 -214 964 -471 309 -296 493 -647 585 -1115 19 -97 21 -154 26 -770 l6
-665 293 -3 292 -3 0 598 c0 331 -5 649 -10 713 -49 538 -250 1044 -576 1445
-397 490 -965 797 -1596 865 -54 5 -235 10 -403 10 -168 0 -305 1 -305 3 0 1
15 41 34 89 64 163 115 363 136 533 20 159 8 460 -24 610 -157 742 -692 1284
-1456 1475 -123 31 -331 60 -432 60 l-88 0 0 375 0 375 -295 0 -295 0 0 -84z"/>
<path d="M11300 1175 l0 -885 295 0 295 0 0 885 0 885 -295 0 -295 0 0 -885z"/>
<path d="M12210 1175 l0 -885 295 0 295 0 0 885 0 885 -295 0 -295 0 0 -885z"/>
<path d="M5478 2032 l-5478 -2 0 -870 0 -870 5485 0 5485 0 0 869 c0 479 -3
871 -7 873 -5 2 -2473 2 -5485 0z"/>
</g>
</svg>
